<?xml version="1.0" encoding="utf-8"?>
<!-- Generator: Adobe Illustrator 24.1.1, SVG Export Plug-In . SVG Version: 6.00 Build 0)  -->
<svg version="1.1" id="レイヤー_1" xmlns="http://www.w3.org/2000/svg" xmlns:xlink="http://www.w3.org/1999/xlink" x="0px"
	 y="0px" viewBox="0 0 48 48" style="enable-background:new 0 0 48 48;" xml:space="preserve">
<style type="text/css">
	.st0{fill:none;}
	.st1{fill:#FFFFFF;}
</style>
<rect class="st0" width="48" height="48"/>
<path class="st1" d="M39,8H9c-2.2,0-4,1.8-4,4v23c0,2.2,1.8,4,4,4h30c2.2,0,4-1.8,4-4V12C43,9.8,41.2,8,39,8z M9,10h30
	c1.1,0,2,0.9,2,2v2.5L24,25.8L7,14.5V12C7,10.9,7.9,10,9,10z M39,37H9c-1.1,0-2-0.9-2-2V16.9l16.4,11c0.2,0.1,0.4,0.2,0.6,0.2
	s0.4-0.1,0.6-0.2l16.4-11V35C41,36.1,40.1,37,39,37z"/>
</svg>
