<?xml version="1.0" encoding="utf-8"?>
<!-- Generator: Adobe Illustrator 24.1.1, SVG Export Plug-In . SVG Version: 6.00 Build 0)  -->
<svg version="1.1" id="レイヤー_1" xmlns="http://www.w3.org/2000/svg" xmlns:xlink="http://www.w3.org/1999/xlink" x="0px"
	 y="0px" viewBox="0 0 48 48" style="enable-background:new 0 0 48 48;" xml:space="preserve">
<style type="text/css">
	.st0{fill:none;}
	.st1{fill:#FFFFFF;}
</style>
<rect class="st0" width="48" height="48"/>
<path class="st1" d="M41,28.9c0-0.1,0-0.1,0-0.2c0-0.1,0-0.1-0.1-0.2c0-0.1-0.1-0.1-0.1-0.2c0-0.1-0.1-0.1-0.1-0.1
	c0,0-0.1-0.1-0.2-0.1c-0.1,0-0.1-0.1-0.2-0.1c0,0-0.1,0-0.1,0l-9-2c-0.3-0.1-0.7,0-0.9,0.3l-3.2,3.1c-3.5-2.1-6.4-5-8.5-8.5l3.1-3.2
	c0.2-0.2,0.3-0.6,0.3-0.9l-2-9c0,0,0-0.1,0-0.1c0-0.1,0-0.1-0.1-0.2c0-0.1-0.1-0.1-0.1-0.1c0-0.1-0.1-0.1-0.1-0.1
	c0,0-0.1-0.1-0.2-0.1c-0.1,0-0.1,0-0.2-0.1c-0.1,0-0.1,0-0.2,0c0,0-0.1,0-0.1,0H9c0,0-0.1,0-0.1,0c0,0-0.1,0-0.1,0
	c-1.3,0.2-1.9,1.5-1.7,3.2C8,27,21,39.9,38,40.9c1.4,0,3-0.6,3-1.9L41,28.9C41,29,41,28.9,41,28.9z M9.1,10C9,9.5,9.1,9.1,9.2,9h9
	l1.7,7.7l-3.3,3.4c0,0,0,0,0,0c-0.1,0.1-0.1,0.2-0.2,0.3c0,0,0,0,0,0.1c0,0.1-0.1,0.2-0.1,0.3c0,0,0,0,0,0.1c0,0.1,0,0.2,0.1,0.3
	c0,0,0,0.1,0,0.1c0,0,0,0.1,0,0.1c2.4,4.3,6,7.9,10.3,10.3c0,0,0.1,0,0.1,0c0,0,0.1,0,0.1,0c0.1,0,0.2,0.1,0.3,0.1c0,0,0,0,0,0
	c0,0,0,0,0,0c0,0,0,0,0,0c0.1,0,0.2,0,0.3-0.1c0,0,0.1,0,0.1,0c0.1,0,0.2-0.1,0.3-0.2c0,0,0,0,0,0l0,0c0,0,0,0,0,0l3.3-3.3l7.7,1.7
	v9c-0.2,0.1-0.6,0.2-0.9,0.2C22.1,38,9.9,25.9,9.1,10z"/>
</svg>
